

<svg xmlns="http://www.w3.org/2000/svg" fill="none" viewBox="0 0 1380 259" height="259" width="1380">
<mask height="259" width="1380" y="0" x="0" maskUnits="userSpaceOnUse" style="mask-type:alpha" id="mask0_6_289">
<rect fill="#D9D9D9" rx="8" height="257.572" width="1379.7" y="0.874023" x="0.073761"></rect>
</mask>
<g mask="url(#mask0_6_289)">
<path fill="white" d="M-256.42 45.9404C-308.664 56.7441 -412.679 82.7406 -461.278 104.618C-520.07 131.222 -611.058 181.865 -565.631 213.601C-548.149 225.823 -463.438 226.903 -442.109 227.848C-402.285 229.604 -330.668 226.768 -290.844 228.524C-276.467 229.131 -261.145 230.077 -249.467 238.517C-214.436 263.771 -230.23 339.532 -187.301 344.191C-145.114 348.783 -139.984 271.401 -98.6078 261.948C-56.691 252.359 -35.2939 361.545 6.21777 372.551C36.8622 380.654 42.5321 259.044 92.4136 259.044C142.295 259.044 135.815 326.365 166.325 326.365C196.834 326.365 208.241 266.742 260.35 268.16C338.176 270.253 468.247 289.902 542.833 312.253C606.754 331.429 676.075 364.921 736.284 336.291C763.958 323.124 784.748 298.275 812.355 285.041C841.852 270.861 899.226 312.86 931.963 313.536C989.337 314.751 1023.56 274.507 1080.93 275.723C1106.78 276.263 1137.63 279.774 1149.51 302.732C1154.44 312.253 1166.79 358.911 1172.53 367.96C1191.63 398.278 1225.24 340.613 1257.44 324.88C1314.21 297.195 1380.69 301.922 1443.67 307.188C1486.06 310.767 1532.3 316.102 1562 346.622C1581.03 366.204 1602.22 397.872 1626.73 385.786C1642.66 377.953 1646.71 354.522 1663.31 348.175C1685.52 339.667 1703.34 367.622 1710.83 390.175C1723.72 428.866 1736.62 467.624 1749.51 506.315C1755.18 523.398 1766.18 544.128 1784.07 542.035C1800.87 540.077 1807.49 519.617 1810.39 503.006C1818.42 456.618 1797.43 363.841 1834.49 363.841C1871.55 363.841 1876.94 435.145 1916.23 433.052C1963.75 430.486 1926.02 299.828 1962.33 299.828C1998.65 299.828 1962.33 399.696 2007.69 399.696C2053.05 399.696 2068.3 312.725 2130.2 281.665C2142.55 275.452 2258.38 256.613 2266.34 245.337C2291.99 208.942 2195.07 151.209 2158.08 126.496C2092.4 82.538 2013.22 37.7025 1938.71 63.9016C1897.06 78.5542 1864.19 113.801 1821.26 124.065C1723.32 147.496 1629.43 32.6382 1532.7 60.6605C1512.11 66.6025 1493.75 78.7567 1473.17 84.6988C1399.59 105.766 1325.62 42.9693 1249.27 49.114C1211.41 52.1525 1176.92 72.0044 1139.79 80.0397C1050.83 99.2838 961.662 49.384 870.607 46.8857C724.404 42.9018 585.357 160.798 444.015 123.255C389.071 108.67 339.729 71.1941 282.895 70.5864C235.848 70.1137 192.582 95.1649 146.48 104.551C12.0901 131.898 -120.95 24.1303 -256.352 46.0079L-256.42 45.9404Z"></path>
<g opacity="0.15">
<path fill="#336EC2" d="M167.724 214.113C168.281 214.113 168.777 214.051 169.21 213.803C169.705 213.618 170.076 213.37 170.448 212.998C170.819 212.627 171.067 212.255 171.253 211.76C171.5 211.326 171.624 210.831 171.562 210.274L171.438 209.221C171.253 208.54 170.943 207.983 170.448 207.549L169.643 206.93C169.024 206.558 168.405 206.435 167.724 206.435C167.167 206.435 166.672 206.496 166.239 206.744C165.743 206.93 165.372 207.178 165.001 207.549C164.629 207.921 164.382 208.292 164.196 208.788C163.948 209.221 163.825 209.716 163.886 210.274L164.01 211.326C164.196 212.008 164.505 212.565 165.001 212.998L165.805 213.618C166.424 213.989 167.043 214.113 167.724 214.113Z"></path>
<path fill="#336EC2" d="M236.433 197.642C239.033 197.642 239.033 193.617 236.433 193.617C233.833 193.617 233.833 197.642 236.433 197.642Z"></path>
<path fill="#336EC2" d="M698.391 166.99C704.333 166.99 704.333 157.702 698.391 157.702C692.448 157.702 692.448 166.99 698.391 166.99Z"></path>
<path fill="#336EC2" d="M814.948 129.403C818.105 129.403 818.105 124.511 814.948 124.511C811.791 124.511 811.791 129.403 814.948 129.403Z"></path>
<path fill="#336EC2" d="M1362.51 134.047L1362.08 132.437L1361.65 131.447C1361.4 130.951 1361.03 130.58 1360.59 130.27C1360.35 130.022 1360.04 129.837 1359.67 129.713C1359.17 129.465 1358.61 129.341 1358.06 129.341L1356.94 129.465L1355.95 129.899C1355.46 130.146 1355.09 130.518 1354.78 130.951C1354.4 131.385 1354.16 131.818 1354.03 132.376L1353.6 133.985C1353.35 134.79 1353.35 135.657 1353.6 136.462C1353.85 137.267 1354.22 137.949 1354.78 138.506L1355.7 139.249C1356.45 139.682 1357.19 139.868 1358.06 139.868C1358.68 139.868 1359.29 139.744 1359.85 139.497C1360.41 139.311 1360.9 139.001 1361.34 138.568C1361.89 138.01 1362.33 137.329 1362.51 136.524C1362.76 135.719 1362.76 134.852 1362.51 134.047Z"></path>
<path fill="#336EC2" d="M531.88 212.132C537.018 212.132 537.018 204.144 531.88 204.144C526.743 204.144 526.743 212.132 531.88 212.132Z"></path>
<path fill="#336EC2" d="M469.486 203.4C474.066 203.4 474.066 196.279 469.486 196.279C464.905 196.279 464.905 203.4 469.486 203.4Z"></path>
<path fill="#336EC2" d="M15.8223 164.823C18.9792 164.823 18.9792 159.931 15.8223 159.931C12.6654 159.931 12.6654 164.823 15.8223 164.823Z"></path>
<path fill="#336EC2" d="M1068.8 169.653C1072.82 169.653 1072.82 163.399 1068.8 163.399C1064.78 163.399 1064.78 169.653 1068.8 169.653Z"></path>
<path fill="#336EC2" d="M1168.7 164.389C1171.37 164.389 1171.37 160.302 1168.7 160.302C1166.04 160.302 1166.04 164.389 1168.7 164.389Z"></path>
<path fill="#336EC2" d="M781.646 160.117C782.512 160.117 783.255 159.993 783.998 159.621C784.741 159.374 785.422 158.94 785.979 158.383C786.598 157.825 786.969 157.206 787.217 156.401C787.588 155.658 787.774 154.915 787.712 154.048L787.464 152.438C787.155 151.386 786.66 150.519 785.917 149.776L784.679 148.847C783.75 148.289 782.698 148.042 781.584 148.042C780.717 148.042 779.974 148.166 779.232 148.537C778.489 148.785 777.808 149.218 777.251 149.776C776.632 150.333 776.26 150.952 776.013 151.757C775.641 152.5 775.456 153.243 775.518 154.11L775.765 155.72C776.075 156.773 776.57 157.64 777.313 158.383L778.551 159.312C779.479 159.869 780.532 160.117 781.646 160.117Z"></path>
</g>
<g opacity="0.35">
<path fill="#336EC2" d="M198.984 194.545C202.884 194.545 202.884 188.477 198.984 188.477C195.084 188.477 195.084 194.545 198.984 194.545Z"></path>
<path fill="#336EC2" d="M739.988 133.862C748.839 133.862 748.839 120.115 739.988 120.115C731.136 120.115 731.136 133.862 739.988 133.862Z"></path>
<path fill="#336EC2" d="M1114.6 125.874C1121.23 125.874 1121.29 115.533 1114.6 115.533C1107.92 115.533 1107.92 125.874 1114.6 125.874Z"></path>
</g>
</g>
</svg>
