
<svg class="snow-top absolute z-1" viewBox="0 0 257 69" fill="none" xmlns="http://www.w3.org/2000/svg">
        <g class="pointer-events-none">
          <mask id="mask0_149_84" style="mask-type:luminance" maskUnits="userSpaceOnUse" x="0" y="0" width="257" height="69">
          <path d="M9.89767 18.8879C6.60692 20.3516 0.706703 25.9604 0.372486 29.5873C0.0896874 32.6313 2.63488 35.3515 5.50143 36.336C8.38084 37.3204 11.5045 36.9837 14.5253 36.6857C39.4759 34.2376 71.5607 35.5588 96.3441 39.38C100.458 40.0147 106.975 40.7012 110.008 43.5769C117.233 50.4421 109.16 68.0456 115.549 68.0456C121.513 68.0456 119.174 62.2555 118.428 53.4343C117.85 46.5173 119.765 40.766 124.495 42.0743C130.678 43.7971 127.054 53.797 128.75 58.1752C131.09 64.1855 136.784 61.5172 137.697 59.4576C139.407 55.5975 137.697 50.9732 137.697 48.7323C137.697 36.2842 148.379 38.4344 148.379 48.0717C148.379 57.7089 152.146 58.3954 155.372 58.3954C161.118 58.3954 162.005 51.2711 165.386 47.4499C174.114 37.5795 218.423 44.6649 245.598 38.9914C250.045 38.0588 256.974 35.8567 256.074 31.6469C255.277 25.1314 238.553 27.5925 229.697 25.7013C205.273 20.4682 184.642 -0.580852 159.73 0.947635C138.661 2.24296 120.665 19.7428 99.5706 19.1599C84.7622 18.7584 71.6892 9.47089 57.2408 6.16781C38.8846 1.97094 16.2349 9.87244 3.50898 23.849C1.20803 26.3749 1.32372 28.0329 1.78648 31.4267C2.24924 34.8204 6.88972 37.3593 9.19067 34.8464" fill="white"></path>
          </mask>
          <g mask="url(#mask0_149_84)">
          <path d="M9.89767 18.8879C6.60692 20.3516 0.706703 25.9604 0.372486 29.5873C0.0896874 32.6313 2.63488 35.3515 5.50143 36.336C8.38084 37.3204 11.5045 36.9837 14.5253 36.6857C39.4759 34.2376 71.5607 35.5588 96.3441 39.38C100.458 40.0147 106.975 40.7012 110.008 43.5769C117.233 50.4421 109.16 68.0456 115.549 68.0456C121.513 68.0456 119.174 62.2555 118.428 53.4343C117.85 46.5173 119.765 40.766 124.495 42.0743C130.678 43.7971 127.054 53.797 128.75 58.1752C131.09 64.1855 136.784 61.5172 137.697 59.4576C139.407 55.5975 137.697 50.9732 137.697 48.7323C137.697 36.2842 148.379 38.4344 148.379 48.0717C148.379 57.7089 152.146 58.3954 155.372 58.3954C161.118 58.3954 162.005 51.2711 165.386 47.4499C174.114 37.5795 218.423 44.6649 245.598 38.9914C250.045 38.0588 256.974 35.8567 256.074 31.6469C255.277 25.1314 238.553 27.5925 229.697 25.7013C205.273 20.4682 184.642 -0.580852 159.73 0.947635C138.661 2.24296 120.665 19.7428 99.5706 19.1599C84.7622 18.7584 71.6892 9.47089 57.2408 6.16781C38.8846 1.97094 16.2349 9.87244 3.50898 23.849C1.20803 26.3749 1.32372 28.0329 1.78648 31.4267C2.24924 34.8204 6.88972 37.3593 9.19067 34.8464" fill="white"></path>
          <path opacity="0.3" d="M260.367 16.5045C256.254 12.6704 250.045 18.9786 254.223 22.6962C258.401 26.4138 254.262 31.8283 250.238 33.3956C246.035 35.0407 241.163 34.665 236.741 34.6391C227.614 34.5873 218.5 34.8464 209.399 35.6495C199.951 36.4785 190.516 37.735 181.184 39.4577C174.435 40.7013 167.095 41.336 162.892 47.4758C161.182 49.9758 160.192 55.2866 156.992 56.1157C151.4 57.5664 151.117 52.0095 150.989 48.2919C150.809 43.1883 147.209 37.5018 141.425 39.1469C135.049 40.9733 136.347 48.9007 136.489 53.9654C136.527 55.2219 136.849 59.0949 135.383 59.9369C132.709 61.4783 131.424 55.9473 131.257 54.7944C130.704 50.8696 131.205 46.9188 130.524 42.9551C130.19 41.0251 128.223 40.0406 126.514 39.8722C120.716 39.3153 118.312 45.0924 117.888 50.0406C117.567 53.81 118.672 59.4317 117.207 62.955C116.436 64.7943 116.808 64.6519 115.832 64.341C115.446 64.2114 115.035 63.6933 114.662 63.0327C114.34 61.3229 114.199 59.7167 114.212 59.2763C114.34 56.284 115.047 53.4861 114.726 50.481C114.225 45.766 112.065 41.7246 107.977 39.1857C98.1309 33.0847 83.811 32.0355 72.5119 31.1547C59.4131 30.1443 46.2373 30.7402 33.1386 31.4526C26.3642 31.8153 19.5771 32.1909 12.8027 32.5148C8.62504 32.7091 4.0874 32.7609 4.10026 27.3335C4.10026 23.9786 5.93845 20.7791 7.41671 17.8646C8.62504 15.4812 5.5271 12.6704 3.56037 14.8595C-0.308836 19.16 -3.81811 23.8102 -3.68957 29.9241C-3.57388 35.3386 -0.0903101 39.9241 5.14147 41.2453C12.6228 43.1235 21.9294 41.2064 29.5522 40.7919C38.3318 40.3127 47.1114 39.8463 55.9039 39.7945C64.9534 39.7557 74.0801 40.0924 83.0397 41.4914C90.0325 42.5795 105.908 43.7064 105.895 53.0716C105.895 54.6908 105.792 56.2581 105.702 57.7996C104.764 58.7193 104.275 60.1182 104.725 61.9058C104.969 62.8514 105.342 64.0301 105.844 65.3125C106.191 67.4239 106.936 69.5093 108.414 71.6207C109.044 72.5145 109.764 73.3306 110.535 74.043C112.065 76.0767 113.8 77.7476 115.664 78.5766C117.117 79.3538 118.891 79.5352 120.498 78.9911C121.86 78.5248 123.339 77.4238 123.596 75.8694C123.634 75.6492 123.673 75.416 123.698 75.1958C123.776 74.7036 123.776 74.2243 123.737 73.771C124.431 72.3072 124.264 70.5327 123.493 69.1855C124.431 67.6441 125.125 65.9731 125.472 64.4705C125.511 64.3151 125.55 64.0431 125.588 63.6545C126.861 65.7529 128.802 67.4368 131.861 68.3695C138.584 70.4161 143.597 64.7425 144.677 58.6286C145.358 59.6519 146.22 60.5845 147.248 61.4265C152.583 65.7788 160.552 65.8306 165.283 60.6234C168.843 56.7115 169.088 51.7893 174.371 49.639C180.014 47.3333 187.225 46.8541 193.216 45.9085C206.366 43.8359 219.696 42.9551 233 42.994C242.204 43.0199 253.555 44.1598 260.355 36.4785C265.381 30.8049 266.088 21.8413 260.355 16.5045H260.367Z" fill="#336EC2"></path>
          <path opacity="0.15" d="M266.512 24.4708C266.088 20.2869 261.923 16.919 258.118 17.0874C257.617 17.1133 257.141 16.8931 256.743 16.5952C251.421 12.502 245.109 12.5667 238.695 10.7274C235.725 9.87246 232.82 14.1341 235.494 16.2714C237.744 18.0848 244.621 21.4786 247.989 25.0537C248.786 25.8957 248.76 27.2428 247.95 28.0589C247.629 28.3827 247.294 28.7065 246.947 29.0044C246.832 29.1081 246.716 29.1987 246.575 29.2765C241.124 32.5666 230.519 31.7635 224.593 31.5562C215.557 31.2583 208.834 30.3775 198.396 30.0537C194.321 29.9241 178.587 30.8568 176.351 31.5044C161.105 35.8956 161.812 46.9966 157.66 48.5639C155.102 49.5354 154.112 46.3748 152.39 41.1546C150.796 36.3231 147.287 33.0718 140.409 35.8438C138.018 36.8153 135.782 39.0691 132.902 38.0976C130.023 37.1262 128.93 34.0044 125.55 31.336C121.076 27.7998 106.384 27.1521 97.4368 27.1521C88.4901 27.1521 76.214 27.0355 66.8559 27.3464C57.8964 27.6314 48.9496 28.02 39.99 28.3697C32.393 28.6677 22.2123 30.7661 14.9881 27.7998C10.5918 25.9863 10.7332 22.5278 13.0727 18.6548C16.8134 12.4631 24.9246 9.26365 31.0305 6.05124C42.4967 0.0150118 34.604 -19.5833 22.1223 -15.244C3.66325 -8.83208 -16.7497 4.08234 -14.9244 26.7247C-14.076 37.2816 -7.7644 46.2064 1.46513 51.1157C11.1317 56.2581 22.058 55.9991 32.6501 55.4809C53.6672 54.4576 75.0185 52.3463 96.0613 53.7193C97.5011 53.81 98.915 53.9395 100.329 54.1079C101.602 54.2633 102.463 55.4032 102.244 56.6727C101.332 61.9446 101.949 66.8151 104.88 71.3099C106.384 73.6026 108.299 75.0404 110.356 76.3357C110.548 76.4523 110.715 76.6077 110.857 76.7891C113.466 80.0404 117.246 82.1388 122.979 82.644C130.627 83.3046 136.219 76.0248 136.245 68.9265C136.245 68.1363 136.707 67.4239 137.401 67.0871C139.291 66.1544 141.001 64.8073 142.517 63.0327C144.754 65.6622 147.788 67.5016 151.169 68.2658C151.67 68.3824 152.171 68.4601 152.673 68.5249C153.135 68.5767 153.572 68.784 153.894 69.1078C155.295 70.5197 157.21 71.3487 159.55 71.0508C168.394 69.9239 177.199 68.1363 185.889 66.1026C192.869 64.4705 202.137 63.1752 206.391 56.569C207.034 55.5587 207.51 54.5095 207.844 53.4214C208.14 52.4628 209.014 51.8022 210.004 51.867C211.289 51.9447 212.587 52.0354 213.886 52.1131C221.933 52.6701 229.568 52.5017 236.728 50.9862C236.857 50.9603 236.972 50.9473 237.101 50.9473C237.666 50.9473 238.245 50.8955 238.849 50.7789C239.98 50.5587 241.111 50.2737 242.217 49.9629C242.32 49.9369 242.423 49.911 242.513 49.911C247.256 49.4318 251.845 48.0976 255.971 45.2738C262.771 40.6235 267.347 32.9034 266.499 24.4967L266.512 24.4708ZM103.671 50.1831C103.864 49.4318 103.851 49.5095 103.658 50.4033C103.517 51.1286 103.363 51.854 103.183 52.5794C103.183 52.5794 103.183 52.5924 103.183 52.6053C102.27 51.7763 101.936 50.8955 103.671 50.196V50.1831Z" fill="#336EC2"></path>
          </g>
          <g opacity="0.35">
          <path d="M42.2653 12.4761C43.1137 12.4761 43.1266 11.1419 42.2653 11.1419C41.4041 11.1419 41.4041 12.4761 42.2653 12.4761Z" fill="#336EC2"></path>
          </g>
          <g opacity="0.35">
          <path d="M35.4524 16.647C36.018 16.647 36.018 15.7662 35.4524 15.7662C34.8868 15.7662 34.8868 16.647 35.4524 16.647Z" fill="#336EC2"></path>
          </g>
          <g opacity="0.35">
          <path d="M84.6594 19.9889C84.9679 19.9889 84.9679 19.5097 84.6594 19.5097C84.3509 19.5097 84.3509 19.9889 84.6594 19.9889Z" fill="#336EC2"></path>
          </g>
          <g opacity="0.35">
          <path d="M156.22 37.6313C156.85 37.6313 156.85 36.6469 156.22 36.6469C155.591 36.6469 155.591 37.6313 156.22 37.6313Z" fill="#336EC2"></path>
          </g>
          <g opacity="0.35">
          <path d="M90.7267 24.5355C91.0738 24.5355 91.0867 23.9785 90.7267 23.9785C90.3668 23.9785 90.3668 24.5355 90.7267 24.5355Z" fill="#336EC2"></path>
          </g>
          <g opacity="0.35">
          <path d="M159.614 7.70923L159.498 7.76104L159.447 7.78695C159.37 7.82581 159.306 7.85172 159.241 7.92944C159.164 7.9942 159.113 8.08487 159.087 8.17555C159.036 8.26622 159.023 8.36985 159.023 8.47347L159.048 8.68073C159.087 8.81026 159.151 8.92684 159.241 9.01751C159.318 9.09523 159.37 9.13409 159.447 9.16L159.498 9.1859L159.614 9.23772C159.755 9.31544 159.897 9.3543 160.064 9.3543C160.218 9.3543 160.372 9.31544 160.514 9.23772C160.784 9.08228 160.951 8.78435 160.951 8.47347C160.951 8.1626 160.784 7.86467 160.514 7.70923C160.372 7.63151 160.231 7.59265 160.064 7.59265C159.91 7.59265 159.755 7.63151 159.614 7.70923Z" fill="#336EC2"></path>
          </g>
          <g opacity="0.35">
          <path d="M169.319 10.7792C169.782 10.7792 169.782 10.0538 169.319 10.0538C168.856 10.0538 168.856 10.7792 169.319 10.7792Z" fill="#336EC2"></path>
          </g>
          <g opacity="0.35">
          <path d="M202.869 25.3387C203.422 25.3387 203.422 24.4708 202.869 24.4708C202.317 24.4708 202.317 25.3387 202.869 25.3387Z" fill="#336EC2"></path>
          </g>
          <g opacity="0.35">
          <path d="M240.572 28.8101C241.034 28.8101 241.034 28.0847 240.572 28.0847C240.109 28.0847 240.109 28.8101 240.572 28.8101Z" fill="#336EC2"></path>
          </g>
          <g opacity="0.35">
          <path d="M210.543 23.8361H210.685C210.685 23.8361 210.736 23.8231 210.749 23.8231H210.775C210.775 23.8231 210.775 23.8231 210.788 23.8231L211.006 23.7972C211.083 23.7713 211.148 23.7454 211.212 23.7065C211.469 23.5641 211.623 23.2661 211.623 22.9812C211.623 22.6962 211.469 22.3983 211.212 22.2558C211.173 22.2428 211.148 22.2169 211.109 22.204C211.006 22.1522 210.903 22.1262 210.788 22.1262C210.788 22.1262 210.788 22.1262 210.775 22.1262H210.736C210.736 22.1262 210.685 22.1262 210.672 22.1262H210.531C210.415 22.1133 210.299 22.1262 210.196 22.191C210.094 22.2299 209.991 22.2817 209.914 22.3724C209.824 22.4501 209.772 22.5408 209.734 22.6573C209.682 22.761 209.656 22.8775 209.656 22.9941L209.682 23.2273C209.721 23.3698 209.798 23.4993 209.901 23.6159L210.081 23.7584C210.209 23.8361 210.363 23.8749 210.518 23.8749L210.543 23.8361Z" fill="#336EC2"></path>
          </g>
          <g opacity="0.15">
          <path d="M50.3251 16.5434L50.1709 16.5175C50.0552 16.4916 49.9395 16.4657 49.8366 16.4657C49.7338 16.4657 49.6438 16.4786 49.5667 16.5304C49.4767 16.5563 49.3996 16.6082 49.3353 16.6729C49.271 16.7377 49.2196 16.8154 49.1939 16.9061C49.1554 16.9968 49.1296 17.0874 49.1296 17.1781L49.1553 17.3724C49.1939 17.489 49.2453 17.5926 49.3353 17.6833L49.4767 17.7999C49.5924 17.8646 49.7081 17.8905 49.8366 17.9035C49.8752 17.9035 49.9138 17.9035 49.9523 17.8905C49.9909 17.8905 50.0295 17.8905 50.0552 17.8776H50.0937C50.0937 17.8776 50.1451 17.8646 50.1709 17.8517L50.3251 17.8258L50.4794 17.761C50.5565 17.7221 50.6208 17.6574 50.6593 17.5926C50.6979 17.5537 50.7236 17.5019 50.7493 17.4501C50.7879 17.3724 50.8136 17.2817 50.8007 17.1911L50.775 17.0097L50.7107 16.8543C50.6722 16.7765 50.6079 16.7118 50.5436 16.6729C50.4794 16.6211 50.4022 16.5693 50.3251 16.5563V16.5434Z" fill="#336EC2"></path>
          </g>
          <g opacity="0.15">
          <path d="M71.2393 17.0874C71.535 17.0874 71.535 16.6211 71.2393 16.6211C70.9437 16.6211 70.9437 17.0874 71.2393 17.0874Z" fill="#336EC2"></path>
          </g>
          <g opacity="0.15">
          <path d="M19.1657 24.147C19.4228 24.147 19.4357 23.7325 19.1657 23.7325C18.8958 23.7325 18.8958 24.147 19.1657 24.147Z" fill="#336EC2"></path>
          </g>
          <g opacity="0.15">
          <path d="M35.7737 26.9578C36.7507 26.9578 36.7507 25.4293 35.7737 25.4293C34.7968 25.4293 34.7968 26.9578 35.7737 26.9578Z" fill="#336EC2"></path>
          </g>
          <g opacity="0.15">
          <path d="M79.9804 22.2428L79.8518 22.204L80.1732 22.5278C80.1732 22.463 80.1475 22.3853 80.0961 22.3335L79.9932 22.204C79.9932 22.204 79.8647 22.1003 79.7876 22.0744C79.7104 22.0356 79.6333 22.0226 79.5433 22.0226C79.4533 22.0226 79.3762 22.0356 79.2991 22.0744C79.222 22.1003 79.1577 22.1392 79.0934 22.204C79.0292 22.2558 78.9906 22.3335 78.9649 22.4112C78.9263 22.4889 78.9135 22.5667 78.9135 22.6573L78.9392 22.8257C78.9649 22.9293 79.0291 23.033 79.1063 23.1107L79.2348 23.2143C79.3377 23.2661 79.4405 23.305 79.5562 23.305L79.7233 23.2791C79.8004 23.2532 79.8775 23.2273 79.9418 23.1625C80.0061 23.1236 80.0704 23.0589 80.1089 22.9812C80.1475 22.9164 80.1732 22.8516 80.1861 22.7869L79.8647 23.1107L79.9932 23.0718L80.0961 23.033C80.0961 23.033 80.186 22.9682 80.2118 22.9293C80.2375 22.9034 80.2503 22.8775 80.2632 22.8387C80.2889 22.7869 80.3017 22.735 80.3017 22.6832V22.5667C80.3017 22.5667 80.2632 22.5019 80.2503 22.463C80.2246 22.4112 80.1861 22.3724 80.1475 22.3464C80.1089 22.3076 80.0575 22.2817 80.0061 22.2687L79.9804 22.2428Z" fill="#336EC2"></path>
          </g>
          <g opacity="0.15">
          <path d="M152.068 13.4864C153.11 13.4864 153.122 11.8413 152.068 11.8413C151.014 11.8413 151.014 13.4864 152.068 13.4864Z" fill="#336EC2"></path>
          </g>
          <g opacity="0.15">
          <path d="M188.935 21.4267L188.884 21.3231C188.884 21.3231 188.858 21.2843 188.845 21.2584C188.832 21.2324 188.819 21.2195 188.794 21.1936C188.794 21.1936 188.768 21.1677 188.755 21.1547C188.717 21.1159 188.678 21.09 188.639 21.077C188.601 21.0511 188.549 21.0381 188.498 21.0511H188.395C188.395 21.0511 188.279 21.1159 188.228 21.1547C188.228 21.1547 188.202 21.1806 188.19 21.1936C188.151 21.2324 188.112 21.2713 188.1 21.3231L188.048 21.4267C187.997 21.5045 187.984 21.5951 187.984 21.6858C187.984 21.7765 188.01 21.8672 188.048 21.9449C188.138 22.1003 188.305 22.2039 188.485 22.2039C188.665 22.2039 188.832 22.1003 188.922 21.9449C188.974 21.8672 188.986 21.7765 188.986 21.6858C188.986 21.5951 188.961 21.5045 188.922 21.4267H188.935Z" fill="#336EC2"></path>
          </g>
          <g opacity="0.15">
          <path d="M163.663 30.3775V30.2998C163.65 30.2091 163.65 30.1184 163.599 30.0407C163.599 30.0277 163.586 30.0148 163.56 30.0018C163.56 29.9889 163.535 29.9759 163.522 29.963H163.496C163.496 29.963 163.432 29.8853 163.393 29.8594C163.355 29.8334 163.303 29.8205 163.252 29.8205C163.2 29.8205 163.149 29.8334 163.11 29.8594C163.046 29.9112 162.956 29.9759 162.918 30.0537C162.892 30.0925 162.879 30.1443 162.866 30.1961C162.866 30.2091 162.866 30.235 162.866 30.2609C162.866 30.2609 162.866 30.2609 162.866 30.2739V30.3127C162.866 30.3127 162.866 30.3645 162.866 30.3904C162.866 30.4423 162.866 30.4941 162.905 30.5459C162.918 30.5977 162.943 30.6366 162.995 30.6754C163.033 30.7143 163.072 30.7402 163.123 30.7661C163.175 30.792 163.226 30.8049 163.278 30.8049H163.38C163.445 30.7661 163.509 30.7402 163.56 30.6884L163.625 30.6106C163.625 30.6106 163.676 30.4811 163.676 30.4034L163.663 30.3775Z" fill="#336EC2"></path>
          </g>
          <g opacity="0.15">
          <path d="M139.291 32.0744C139.818 32.0744 139.818 31.2454 139.291 31.2454C138.764 31.2454 138.764 32.0744 139.291 32.0744Z" fill="#336EC2"></path>
          </g>
          <g opacity="0.15">
            <path d="M234.504 30.2091C235.121 30.2091 235.121 29.2376 234.504 29.2376C233.887 29.2376 233.887 30.2091 234.504 30.2091Z" fill="#336EC2"></path>
          </g>
        </g>
      </svg>