<svg class="snow w-full h-auto absolute left-0 -z-1" width="875" height="217" viewBox="0 0 875 217" fill="none" xmlns="http://www.w3.org/2000/svg">
              <g class="pointer-events-none" clip-path="url(#clip0_6_519)">
                <path d="M105.112 52.7502C89.8065 56.6597 59.3967 65.7666 45.3227 72.8916C28.2989 81.5517 2.08278 97.7471 15.9583 106.478C21.2983 109.841 46.3713 108.987 52.6938 108.97C64.4984 108.937 85.6438 107.109 97.4484 107.076C101.71 107.056 106.255 107.123 109.826 109.451C120.537 116.414 116.91 138.977 129.673 139.756C142.216 140.527 142.665 117.634 154.775 114.273C167.042 110.865 174.878 142.771 187.309 145.442C196.486 147.408 196.485 111.463 211.24 110.772C225.995 110.082 225.008 130.027 234.033 129.604C243.057 129.182 245.609 111.44 261.043 111.136C284.093 110.677 322.84 114.671 345.212 120.231C364.385 125.002 385.353 133.92 402.768 124.643C410.772 120.376 416.579 112.76 424.563 108.475C433.093 103.884 450.644 115.477 460.337 115.223C477.325 114.787 486.893 102.445 503.881 102.009C511.536 101.81 520.709 102.419 524.54 109.025C526.129 111.765 530.427 125.355 532.249 127.944C538.318 136.622 547.466 119.149 556.772 114.064C573.182 105.113 592.915 105.587 611.616 106.268C624.205 106.737 637.956 107.67 647.162 116.261C653.063 121.772 659.769 130.819 666.85 126.915C671.455 124.385 672.329 117.418 677.153 115.316C683.605 112.5 689.262 120.498 691.789 127.045C696.137 138.278 700.486 149.531 704.833 160.763C706.746 165.723 710.287 171.685 715.549 170.82C720.494 170.01 722.168 163.884 722.797 158.945C724.533 145.152 717.043 118.08 728.005 117.567C738.967 117.054 741.548 138.009 753.14 136.848C767.161 135.434 754.196 97.4212 764.938 96.9185C775.68 96.4159 766.317 126.372 779.734 125.744C793.152 125.117 796.464 99.2554 814.345 89.2379C817.913 87.2348 851.915 80.0754 854.116 76.6394C861.201 65.5504 831.732 49.865 820.449 43.0883C800.415 31.0329 776.376 18.9055 754.694 27.6638C742.577 32.5617 733.34 43.4122 720.782 47.0334C692.134 55.2994 662.775 22.7242 634.55 32.3276C628.542 34.365 623.279 38.2038 617.271 40.2412C595.798 47.473 573.048 29.9763 550.551 32.8452C539.392 34.2655 529.463 40.5978 518.592 43.4815C492.541 50.3886 465.477 36.9059 438.507 37.4294C395.205 38.2781 355.7 74.9736 313.372 65.8575C296.918 62.3164 281.805 51.9468 264.985 52.5542C251.062 53.066 238.609 61.0532 225.101 64.4594C185.725 74.385 144.884 44.4427 105.133 52.7692L105.112 52.7502Z" fill="white"></path>
                <mask id="mask0_6_519" style="mask-type:luminance" maskUnits="userSpaceOnUse" x="12" y="24" width="844" height="147">
                  <path d="M105.112 52.7502C89.8065 56.6597 59.3967 65.7666 45.3227 72.8916C28.2989 81.5517 2.08278 97.7471 15.9583 106.478C21.2983 109.841 46.3713 108.987 52.6938 108.97C64.4984 108.937 85.6438 107.109 97.4484 107.076C101.71 107.056 106.255 107.123 109.826 109.451C120.537 116.414 116.91 138.977 129.673 139.756C142.216 140.527 142.665 117.634 154.775 114.273C167.042 110.865 174.878 142.771 187.309 145.442C196.486 147.408 196.485 111.463 211.24 110.772C225.995 110.082 225.008 130.027 234.033 129.604C243.057 129.182 245.609 111.44 261.043 111.136C284.093 110.677 322.84 114.671 345.212 120.231C364.385 125.002 385.353 133.92 402.768 124.643C410.772 120.376 416.579 112.76 424.563 108.475C433.093 103.884 450.644 115.477 460.337 115.223C477.325 114.787 486.893 102.445 503.881 102.009C511.536 101.81 520.709 102.419 524.54 109.025C526.129 111.765 530.427 125.355 532.249 127.944C538.318 136.622 547.466 119.149 556.772 114.064C573.182 105.113 592.915 105.587 611.616 106.268C624.205 106.737 637.956 107.67 647.162 116.261C653.063 121.772 659.769 130.819 666.85 126.915C671.455 124.385 672.329 117.418 677.153 115.316C683.605 112.5 689.262 120.498 691.789 127.045C696.137 138.278 700.486 149.531 704.833 160.763C706.746 165.723 710.287 171.685 715.549 170.82C720.494 170.01 722.168 163.884 722.797 158.945C724.533 145.152 717.043 118.08 728.005 117.567C738.967 117.054 741.548 138.009 753.14 136.848C767.161 135.434 754.196 97.4212 764.938 96.9185C775.68 96.4159 766.317 126.372 779.734 125.744C793.152 125.117 796.464 99.2554 814.345 89.2379C817.913 87.2348 851.915 80.0754 854.116 76.6394C861.201 65.5504 831.732 49.865 820.449 43.0883C800.415 31.0329 776.376 18.9055 754.694 27.6638C742.577 32.5617 733.34 43.4122 720.782 47.0334C692.134 55.2994 662.775 22.7242 634.55 32.3276C628.542 34.365 623.279 38.2038 617.271 40.2412C595.798 47.473 573.048 29.9763 550.551 32.8452C539.392 34.2655 529.463 40.5978 518.592 43.4815C492.541 50.3886 465.477 36.9059 438.507 37.4294C395.205 38.2781 355.7 74.9736 313.372 65.8575C296.918 62.3164 281.805 51.9468 264.985 52.5542C251.062 53.066 238.609 61.0532 225.101 64.4594C185.725 74.385 144.884 44.4427 105.133 52.7692L105.112 52.7502Z" fill="white"></path>
                </mask>
                <g mask="url(#mask0_6_519)">
                <path opacity="0.3" d="M17.5246 80.9383C4.17524 86.8718 -4.49592 110.249 13.5694 116.15C21.1901 118.647 30.2731 118.183 38.2004 118.251C50.0922 118.373 61.9905 117.776 73.8855 117.539C78.9636 117.441 84.0272 117.464 89.1099 117.465C93.3721 117.465 103.416 115.299 106.475 118.229C109.052 120.703 109.622 127.323 111.039 130.669C112.904 135.033 115.228 139.375 118.801 142.6C125.843 148.977 135.592 149.06 142.513 142.608C145.735 139.604 148.087 135.562 150.106 131.675C152.089 127.87 155.238 117.764 160.234 123.617C164.786 128.953 165.413 138.503 169.301 144.608C173.836 151.721 180.974 156.316 189.628 154.794C198.618 153.216 203.647 146.075 206.593 138.033C207.765 134.865 208.265 129.732 210.403 127.098C213.467 123.302 215.96 127.396 219.726 130.054C228.149 136.007 236.746 137.141 245.502 130.964C251.061 127.031 255.362 122.739 261.909 120.237C268.239 117.825 274.981 116.931 281.739 116.814C310.754 116.375 336.762 130.805 364.634 136.306C377.943 138.937 392.314 139.442 405.119 134.272C416.275 129.779 422.693 115.128 435.293 115.836C448.253 116.547 460.237 122.932 473.478 121.514C485.744 120.221 498.584 111.098 510.867 112.32C521.623 113.393 524.03 128.489 532.895 133.622C543.406 139.737 552.366 133.21 561.615 128.167C575.098 120.81 590.73 117.065 606.08 117.524C613.455 117.758 622.596 118.548 629.364 121.624C633.862 123.669 637.519 127.849 641.229 131.008C648.481 137.175 657.025 144.02 667.196 141.149C671.344 139.977 674.786 137.421 677.807 134.426C679.184 133.064 680.733 131.515 681.798 129.908C682.022 129.558 683.659 128.184 683.641 127.806C683.611 127.169 680.534 127.273 680.293 128.102C680.361 127.84 685.576 137.515 685.93 138.676C687.378 143.538 688.312 148.524 689.681 153.409C692.3 162.767 696.536 171.171 704.476 177.086C712.066 182.758 723.496 186.714 729.722 176.922C733.487 170.998 735.952 161.682 735.606 154.713C735.288 147.922 733.113 141.198 733.434 134.377C733.472 133.478 734.318 130.185 734.087 129.517C734.223 129.012 734.38 128.505 734.517 128.02C732.135 128.012 729.774 128.002 727.392 127.994C727.103 129.085 732.383 134.147 733.263 135.004C741.861 143.423 753.658 144.508 762.143 135.11C765.51 131.38 767.426 126.999 768.579 122.135C769.063 120.077 771.966 108.984 770.895 107.477C770.209 106.491 761.549 107.455 761.66 107.251C761.384 107.763 762.464 109.887 762.701 110.675C763.316 112.702 763.83 114.713 764.642 116.671C767.009 122.348 770.867 125.68 776.562 128.088C801.977 138.814 803.626 105.207 820.527 97.3511C835.039 90.6047 856.91 88.4637 859.215 68.8567C861.261 51.4372 840.023 35.4664 827.982 26.1705C818.12 18.5289 808.011 12.4756 796.214 8.37735C786.083 4.83978 780.156 21.4429 789.751 25.9237C800.245 30.8213 810.071 37.2472 818.961 44.6348C824.999 49.6612 835.45 57.0557 838.425 64.6004C839.832 68.167 838.21 68.9813 833.944 71.057C825.943 74.964 817.037 76.6381 809.107 80.8012C801.685 84.6811 796.329 89.9612 792.309 97.2744C790.705 100.203 789.239 106.08 786.554 108.142C781.783 111.798 782.438 105.7 780.919 101.46C778.156 93.7255 772.019 87.8854 763.331 89.9286C752.938 92.3508 751.191 102.911 749.967 111.809C749.756 113.296 749.381 120.658 747.739 121.074C746.75 121.32 739.304 111.011 737.276 110.008C726.829 104.849 717.368 114.333 714.789 123.794C711.628 135.358 717.181 145.836 716.227 157.077C716.095 158.54 713.252 163.643 713.655 165.839C713.475 166.267 713.276 166.715 713.096 167.143C720.014 165.741 721.427 164.298 717.336 162.833C715.623 160.857 713.239 159.931 711.691 157.648C702.189 143.603 706.799 122.811 690.727 112.466C683.588 107.87 676.421 108.645 670.333 114.538C668.247 116.551 665.853 121.413 663.201 122.476C659.981 123.784 655.43 118.468 652.906 116.291C645.86 110.254 639.695 105.074 630.571 102.527C617.513 98.8673 603.317 97.8151 589.887 99.9005C576.637 101.958 563.676 106.795 552.018 113.368C549.054 115.043 544.522 119.527 541.116 118.169C537.446 116.704 534.121 108.078 531.518 105.047C514.589 85.3816 492.71 102.312 472.709 105.084C460.264 106.824 447.999 100.013 435.606 99.4357C423.814 98.8898 416.485 103.903 408.398 111.965C388.189 132.111 355.866 117.417 332.852 110.112C310.164 102.91 284.703 96.7572 261.106 103.509C255.775 105.036 250.481 107.36 245.818 110.352C242.788 112.31 237.833 118.45 234.556 118.982C230.088 119.71 226.064 114.549 222.621 112.376C218.787 109.98 214.633 108.438 210.056 108.992C202.436 109.927 197.993 115.464 195.203 122.141C193.583 126.009 191.403 140.979 185.103 138.919C179.534 137.084 177.339 122.238 174.772 117.429C170.673 109.777 162.739 104.44 153.766 105.978C141.458 108.07 139.987 119.835 133.946 128.44C129.951 134.135 127.628 129.833 125.366 124.67C123.326 119.996 122.832 114.57 120.243 110.141C114.784 100.796 104.43 101.48 94.9833 101.862C83.5605 102.357 72.0833 102.116 60.634 102.472C49.4243 102.817 38.1688 103.463 26.9483 103.15C24.9043 103.086 18.7685 103.672 17.0957 102.134C13.7283 99.0184 19.2417 88.9809 21.362 86.826C23.8059 84.3167 20.9317 79.3418 17.5009 80.8595L17.5246 80.9383Z" fill="#336EC2"></path>
                <path opacity="0.15" d="M865.365 47.1936C859.376 32.9642 848.512 22.3158 836.289 13.3877C833.49 10.8841 830.326 8.69708 826.801 6.90614C826.326 6.609 825.851 6.29194 825.377 5.99479C825.36 6.05547 825.324 6.137 825.307 6.19768C802.167 -4.6546 777.728 14.4514 799.364 28.228C800.209 28.7673 796.242 26.9371 797.315 27.6453C797.539 28.1537 809.896 37.7941 810.349 45.3371C810.439 48.1071 810.408 48.7273 808.766 51.2789C798.108 73.2328 766.655 62.6098 749.548 75.485C741.777 76.627 739.611 94.0521 731.857 95.1135C723.745 96.2315 712.684 80.5031 704.899 78.7917C689.474 75.422 679.279 94.0411 664.791 99.5888C650.146 105.204 639.129 82.7075 624.827 78.9859C609.897 75.0941 594.824 75.8193 579.783 78.5389C565.596 81.1187 551.274 86.3593 536.743 86.2809C522.232 86.2015 509.922 75.8603 495.607 81.6993C482.098 87.2013 477.021 98.8749 460.581 95.2134C444.648 91.6879 431.11 84.1784 414.661 91.4345C400.349 97.7524 397.068 102.895 380.7 99.9291C367.319 97.4817 354.018 94.6114 340.621 92.2645C313.123 87.4639 284.144 85.2474 257.245 94.5492C249.368 97.2729 242.575 102.201 234.931 105.193C226.423 108.525 215.474 100.336 206.093 101.693C196.73 103.029 191.244 116.638 184.899 116.176C177.812 115.67 174.353 99.0666 157.582 99.8514C140.81 100.636 137.528 116.896 131.416 115.845C126.776 115.044 124.515 101.359 121.197 98.8794C113.371 89.8453 92.5031 89.4846 76.4841 92.2499C65.2092 94.1945 45.1521 95.3326 34.3137 91.2095C19.992 85.7724 38.4357 73.6729 25.819 67.8966C14.203 62.5524 5.57434 81.2778 5.69736 89.894C6.13247 119.292 40.7051 118.752 61.4745 117.441C74.5025 116.612 89.7152 115.86 100.71 124.187C112.908 133.416 119.487 147.438 137.733 141.375C142.324 139.843 151.975 135.26 154.822 131.115C155.178 130.6 155.587 130.361 155.921 130.226C157.194 131.344 158.362 133.205 159.253 134.281C173.817 151.742 199.366 158.928 211.225 133.546C211.977 133.79 212.71 134.055 213.015 134.16C225.978 138.364 234.714 140.31 247.835 135.066C259.777 130.276 270.005 124.768 283.056 123.578C308.681 121.261 334.757 128.164 359.495 133.833C371.894 136.665 385.334 139.948 398.168 138.809C409.666 137.792 416.511 130.985 426.869 127.826C437.641 124.548 447.214 131.564 457.739 133.686C471.355 136.442 483.067 133.14 495.3 126.879C496.961 126.023 498.703 125.203 500.423 124.324C512.34 143.805 533.759 154.219 555.7 143.752C564.312 139.636 570.159 131.16 578.832 127.501C590.332 122.652 601.749 129.323 612.44 133.273C616.94 134.939 621.369 136.368 625.807 137.557C633.027 157.577 665.344 157.582 682.015 155.065C683.485 154.837 684.994 154.586 686.524 154.355C689.184 160.318 691.648 166.35 696.456 171.174C713.904 188.699 743.474 179.592 745.976 156.084C762.745 147.555 791.468 137.47 794.141 115.89C832.991 119.959 884.976 93.8364 865.366 47.2135L865.365 47.1936ZM181.442 120.988C181.35 121.152 181.276 121.275 181.297 121.294C181.251 121.177 181.326 121.074 181.442 120.988ZM186.996 119.93C188.36 122.581 188.365 119.686 186.996 119.93V119.93ZM208.959 133.013C208.954 132.913 209.338 132.995 209.844 133.111C209.363 133.513 208.988 133.63 208.959 133.013Z" fill="#336EC2"></path>
                  <g opacity="0.15">
                    <path d="M139.477 86.6879C141.294 86.6029 141.161 83.775 139.344 83.8601C137.527 83.9451 137.66 86.773 139.477 86.6879Z" fill="#336EC2"></path>
                    <path d="M141.476 71.6856C143.093 71.61 142.976 69.1007 141.359 69.1764C139.741 69.2521 139.859 71.7613 141.476 71.6856Z" fill="#336EC2"></path>
                    <path d="M252.031 91.3204C252.211 91.312 252.37 91.2846 252.506 91.1984C252.663 91.1312 252.779 91.046 252.893 90.9209C253.007 90.7958 253.082 90.6725 253.134 90.5104C253.207 90.3673 253.24 90.2061 253.212 90.0278L253.156 89.6911C253.086 89.4749 252.977 89.3003 252.811 89.1684L252.542 88.9814C252.337 88.8712 252.135 88.8407 251.916 88.851C251.736 88.8594 251.577 88.8868 251.441 88.973C251.284 89.0402 251.168 89.1255 251.054 89.2506C250.94 89.3757 250.866 89.4989 250.813 89.661C250.74 89.8042 250.707 89.9654 250.736 90.1437L250.791 90.4803C250.862 90.6966 250.97 90.8711 251.136 91.0031L251.405 91.1901C251.61 91.3002 251.812 91.3307 252.031 91.3204Z" fill="#336EC2"></path>
                    <path d="M273.946 84.9862C274.785 84.947 274.725 83.6525 273.886 83.6918C273.047 83.731 273.108 85.0255 273.946 84.9862Z" fill="#336EC2"></path>
                    <path d="M422.496 68.156C424.413 68.0663 424.273 65.0791 422.356 65.1688C420.44 65.2585 420.579 68.2457 422.496 68.156Z" fill="#336EC2"></path>
                    <path d="M459.528 54.3085C460.546 54.2609 460.472 52.6876 459.454 52.7353C458.436 52.7829 458.509 54.3562 459.528 54.3085Z" fill="#336EC2"></path>
                    <path d="M645.324 42.7607C646.122 42.7234 646.065 41.5086 645.267 41.5459C644.468 41.5833 644.525 42.7981 645.324 42.7607Z" fill="#336EC2"></path>
                    <path d="M636.222 47.5373L636.058 47.0261L635.904 46.714C635.816 46.5584 635.691 46.4445 635.546 46.3515C635.463 46.2756 635.36 46.2205 635.239 46.1863C635.075 46.1141 634.894 46.0827 634.714 46.0911L634.356 46.1477L634.043 46.3021C633.887 46.3892 633.773 46.5143 633.68 46.6584C633.567 46.8034 633.493 46.9465 633.462 47.1276L633.346 47.6519C633.278 47.9146 633.291 48.1934 633.383 48.4485C633.475 48.7037 633.605 48.9171 633.794 49.0879L634.104 49.3129C634.35 49.4411 634.593 49.4896 634.872 49.4766C635.072 49.4672 635.27 49.418 635.446 49.33C635.623 49.2618 635.778 49.1548 635.911 49.0088C636.082 48.8212 636.212 48.5956 636.26 48.3339C636.327 48.0713 636.314 47.7925 636.222 47.5373Z" fill="#336EC2"></path>
                    <path d="M779.111 41.011C780.529 40.9446 780.426 38.754 779.008 38.8204C777.591 38.8867 777.693 41.0773 779.111 41.011Z" fill="#336EC2"></path>
                    <path d="M61.0989 79.4781C61.8776 79.4417 61.8217 78.2468 61.043 78.2832C60.2643 78.3197 60.3202 79.5145 61.0989 79.4781Z" fill="#336EC2"></path>
                    <path d="M47.2251 84.8974C48.9622 84.8161 48.8355 82.1078 47.0984 82.189C45.3613 82.2703 45.4881 84.9787 47.2251 84.8974Z" fill="#336EC2"></path>
                    <path d="M369.465 85.1869C371.122 85.1093 371.002 82.5403 369.345 82.6179C367.688 82.6954 367.808 85.2644 369.465 85.1869Z" fill="#336EC2"></path>
                    <path d="M349.208 83.3206C350.685 83.2515 350.578 80.9613 349.1 81.0304C347.623 81.0996 347.73 83.3897 349.208 83.3206Z" fill="#336EC2"></path>
                    <path d="M202.292 77.7612C203.31 77.7135 203.236 76.1402 202.218 76.1879C201.2 76.2355 201.273 77.8088 202.292 77.7612Z" fill="#336EC2"></path>
                    <path d="M542.017 63.4214C543.314 63.3607 543.22 61.3493 541.922 61.41C540.625 61.4707 540.719 63.4821 542.017 63.4214Z" fill="#336EC2"></path>
                    <path d="M574.163 60.2208C575.022 60.1806 574.96 58.8662 574.102 58.9064C573.243 58.9466 573.305 60.2609 574.163 60.2208Z" fill="#336EC2"></path>
                    <path d="M726.558 68.2583C727.936 68.1938 727.836 66.063 726.458 66.1274C725.081 66.1919 725.18 68.3228 726.558 68.2583Z" fill="#336EC2"></path>
                    <path d="M449.248 64.6889C449.527 64.6758 449.765 64.6248 449.999 64.4941C450.235 64.4032 450.448 64.2535 450.619 64.0659C450.811 63.8773 450.921 63.6725 450.989 63.4099C451.097 63.1653 451.146 62.9236 451.113 62.6457L451.009 62.1316C450.893 61.7978 450.721 61.5264 450.47 61.2987L450.057 61.0186C449.749 60.8534 449.406 60.7896 449.046 60.8065C448.767 60.8195 448.529 60.8706 448.295 61.0013C448.059 61.0921 447.846 61.2418 447.675 61.4295C447.483 61.618 447.373 61.8228 447.305 62.0854C447.196 62.33 447.148 62.5718 447.181 62.8496L447.285 63.3637C447.4 63.6976 447.573 63.9689 447.824 64.1967L448.237 64.4767C448.545 64.6419 448.888 64.7057 449.248 64.6889Z" fill="#336EC2"></path>
                  </g>
                  <g opacity="0.35">
                    <path d="M124.263 77.5804C127.258 77.4403 127.041 72.8002 124.046 72.9403C121.051 73.0804 121.268 77.7206 124.263 77.5804Z" fill="#336EC2"></path>
                    <path d="M261.82 84.5557C263.078 84.4968 262.987 82.5452 261.729 82.604C260.471 82.6629 260.562 84.6145 261.82 84.5557Z" fill="#336EC2"></path>
                    <path d="M435.415 56.8736C438.27 56.74 438.064 52.3189 435.208 52.4525C432.353 52.5861 432.56 57.0072 435.415 56.8736Z" fill="#336EC2"></path>
                    <path d="M790.909 42.1156C790.909 42.1156 790.729 42.124 790.628 42.1088C790.349 42.1218 790.091 42.1738 789.858 42.3244C789.602 42.4162 789.409 42.565 789.239 42.7725L788.938 43.1858C788.773 43.5128 788.689 43.856 788.706 44.2145C788.71 44.3141 788.714 44.3937 788.739 44.4924L788.847 45.0861L789.091 45.6135C789.243 45.8658 789.453 46.0756 789.7 46.2237C789.846 46.3565 790.011 46.4486 790.213 46.499C790.398 46.5902 790.58 46.6415 790.8 46.6313C791.002 46.6817 791.202 46.6723 791.399 46.6032C791.598 46.5939 791.795 46.5248 791.97 46.4168C792.245 46.3042 792.478 46.1535 792.688 45.9242L793.026 45.4494L793.22 44.9014L793.272 44.3002L793.164 43.7065L792.919 43.1791C792.768 42.9267 792.558 42.717 792.311 42.5689C792.164 42.4361 792 42.344 791.797 42.2936C791.511 42.1672 791.229 42.1206 790.91 42.1355L790.909 42.1156Z" fill="#336EC2"></path>
                    <path d="M774.846 50.7906C776.503 50.7131 776.383 48.1441 774.726 48.2216C773.069 48.2992 773.189 50.8682 774.846 50.7906Z" fill="#336EC2"></path>
                    <path d="M178.645 89.8646C180.003 89.801 179.904 87.6901 178.547 87.7536C177.189 87.8172 177.288 89.9281 178.645 89.8646Z" fill="#336EC2"></path>
                    <path d="M556.133 48.6505C558.269 48.5505 558.134 45.2238 555.977 45.3247C553.821 45.4256 553.977 48.7514 556.133 48.6505Z" fill="#336EC2"></path>
                    <path d="M662.746 84.5363C663.944 84.4803 663.858 82.6282 662.66 82.6843C661.462 82.7403 661.548 84.5924 662.746 84.5363Z" fill="#336EC2"></path>
                    <path d="M673.051 74.6936C674.289 74.6356 674.2 72.7238 672.962 72.7818C671.724 72.8397 671.813 74.7515 673.051 74.6936Z" fill="#336EC2"></path>
                  </g>
                </g>
              </g>
              <defs>
                <clipPath id="clip0_6_519">
                  <rect width="867.12" height="175.441" fill="white" transform="translate(0.403503 40.9048) rotate(-2.67904)"></rect>
                </clipPath>
              </defs>
            </svg>